# Blender 4.1.1
# www.blender.org
mtllib car.mtl
o Cube
v 2.584532 1.000000 -1.652424
v 2.584532 -1.000000 -1.652424
v 2.584532 1.000000 1.101325
v 2.584532 -0.967973 0.830493
v -2.549423 1.000000 -1.652424
v -2.549423 -1.000000 -1.652424
v -2.549423 1.000000 1.101325
v -2.549423 -0.967973 0.830493
v 2.584532 1.000000 -1.652424
v 2.584532 -1.000000 -1.652424
v -2.549423 1.000000 -1.652424
v -2.549423 -1.000000 -1.652424
v 2.584532 1.000000 -3.477318
v 2.584532 -1.000000 -3.477318
v -2.549423 1.000000 -3.477318
v -2.549423 -1.000000 -3.477318
v 2.584532 1.000000 2.070337
v 2.584532 -1.000000 2.070337
v -2.549423 1.000000 2.070337
v -2.549423 -1.000000 2.070337
v 2.584532 1.000000 1.101325
v -2.549423 1.000000 1.101325
v 2.584532 1.000000 -1.652424
v -2.549423 1.000000 -1.652424
v 2.584532 1.000000 1.101325
v -2.549423 1.000000 1.101325
v 2.584532 1.000000 -1.652424
v -2.549423 1.000000 -1.652424
v 2.584532 1.000000 -1.652424
v 2.584532 1.000000 1.101325
v -2.549423 1.000000 -1.652424
v -2.549423 1.000000 1.101325
v 2.584532 1.000000 -1.652424
v -2.549423 1.000000 -1.652424
v 2.584532 1.000000 2.070337
v 2.584532 1.000000 1.101325
v -2.549423 1.000000 1.101325
v 2.584532 1.000000 -1.652424
v -2.549423 1.000000 -1.652424
v 2.158326 2.336103 -1.062699
v 2.158326 2.336103 0.722281
v -2.123217 2.336103 -1.062699
v -2.123217 2.336103 0.722281
v 2.158326 2.336103 -1.062699
v -2.123217 2.336103 -1.062699
v 2.158326 2.336103 0.722281
v -2.123217 2.336103 0.722281
v 2.158326 2.336103 -1.062699
v -2.123217 2.336103 -1.062699
v -2.549423 1.000000 -1.952463
v -2.549423 1.000000 -2.256612
v -2.549423 1.000000 -2.560761
v -2.549423 1.000000 -2.864910
v -2.549423 1.000000 -3.169059
v -2.549423 -1.000000 -3.169059
v -2.549423 -1.000000 -1.952463
v 2.584532 -1.000000 -3.169059
v 2.584532 -1.000000 -1.952463
v 2.584532 1.000000 -1.952463
v 2.584532 1.000000 -2.256612
v 2.584532 1.000000 -2.560761
v 2.584532 1.000000 -2.864910
v 2.584532 1.000000 -3.169059
v 2.584532 0.506849 -1.652424
v 2.584532 0.006849 -1.652424
v 2.584532 -0.493151 -1.652424
v -2.549423 -0.448522 0.875335
v -2.549423 -0.035154 0.950072
v -2.549423 0.201014 1.126237
v 2.584532 0.201014 1.126237
v 2.584532 -0.035154 0.950072
v 2.584532 -0.448522 0.875335
v -2.549423 0.506849 -1.652424
v -2.549423 0.006849 -1.652424
v -2.549423 -0.493151 -1.652424
v 2.584532 0.506849 -1.652424
v 2.584532 0.006849 -1.652424
v 2.584532 -0.493151 -1.652424
v -2.549423 0.506849 -1.652424
v -2.549423 0.006849 -1.652424
v -2.549423 -0.493151 -1.652424
v 2.584532 0.506849 -3.477318
v 2.584532 0.006849 -3.477318
v 2.584532 -0.493151 -3.477318
v -2.549423 0.506849 -3.477318
v -2.549423 0.006849 -3.477318
v -2.549423 -0.493151 -3.477318
v -2.549423 -0.493151 2.070337
v -2.549423 0.006849 2.070337
v -2.549423 0.506849 2.070337
v 2.584532 0.506849 2.070337
v 2.584532 0.006849 2.070337
v 2.584532 -0.493151 2.070337
v 2.584532 -0.483700 -2.046418
v 2.584532 -0.002601 -2.191621
v 2.584532 0.166624 -2.358177
v 2.584532 0.194976 -2.525665
v 2.584532 0.194976 -2.701694
v 2.584532 0.115592 -2.861250
v 2.584532 -0.432125 -3.092675
v 2.584532 -0.148141 -2.990301
v 2.584532 0.506849 -3.169059
v -2.549423 0.166624 -2.358177
v -2.549423 -0.002601 -2.191621
v -2.549423 -0.483700 -2.046418
v -2.549423 0.194976 -2.525665
v -2.549423 0.194976 -2.701694
v -2.549423 0.115592 -2.861250
v -2.549423 0.506849 -3.169059
v -2.549423 -0.148141 -2.990301
v -2.549423 -0.432125 -3.092675
v -2.549423 -0.990549 1.815664
v -2.549423 1.000000 1.747333
v -2.549423 1.000000 1.424329
v 2.584532 -0.990549 1.815664
v 2.584532 -0.477400 1.765127
v 2.584532 -0.142787 1.693949
v 2.584532 0.256143 1.370946
v 2.584532 0.113070 1.601418
v -2.549423 0.256143 1.370946
v -2.549423 0.113070 1.601418
v -2.549423 -0.142787 1.693949
v -2.549423 -0.477400 1.765127
v 2.584532 -1.000000 -3.477318
v 2.584532 -1.000000 -3.169059
v 2.584532 0.506849 -3.477318
v 2.584532 0.506849 -3.169059
v 2.584532 0.166624 -2.358177
v 0.017554 1.000000 1.101325
v 0.017554 1.000000 -1.928019
v 0.017554 2.336103 0.722281
v 0.017554 2.336103 -1.062699
v 0.033307 2.281167 -1.277497
v 2.371429 1.668052 -1.357562
v 2.371429 1.668052 0.911803
v 2.371429 1.668052 -1.357562
v -2.336320 1.668052 -1.357562
v -2.336320 1.668052 0.911803
v -2.336320 1.668052 -1.357562
v 0.017554 1.668052 0.911803
v 0.017554 1.668052 -1.620319
v 0.017554 -1.000000 -1.652424
v 0.017554 -0.967973 0.830493
v 0.017554 -1.000000 -1.652424
v 0.017554 -1.000000 -3.477318
v 0.017554 1.000000 -3.477318
v 0.017554 1.000000 2.070337
v 0.017554 -1.000000 2.070337
v 0.017554 1.000000 -1.952463
v 0.017554 1.000000 -2.256612
v 0.017554 1.000000 -2.560761
v 0.017554 1.000000 -2.864910
v 0.017554 1.000000 -3.169059
v 0.017554 -1.000000 -1.952463
v 0.017554 -1.000000 -3.169059
v 0.017554 -0.493151 2.070337
v 0.017554 0.006849 2.070337
v 0.017554 0.506849 2.070337
v 0.017554 -0.493151 -3.477318
v 0.017554 0.006849 -3.477318
v 0.017554 0.506849 -3.477318
v 0.017554 -0.483700 -2.046418
v 0.017554 -0.990549 1.815664
v 0.017554 -0.002601 -2.191621
v 0.017554 0.166624 -2.358177
v 0.017554 0.194976 -2.525665
v 0.017554 0.194976 -2.701694
v 0.017554 0.115592 -2.861250
v 0.017554 -0.148141 -2.990301
v 0.017554 -0.432125 -3.092675
v 0.017554 -0.448522 0.875335
v 0.017554 -0.035154 0.950072
v 0.017554 0.201014 1.126237
v 0.017554 0.256143 1.370946
v 0.017554 -0.477400 1.765127
v 0.017554 0.113070 1.601418
v 0.017554 -0.142787 1.693949
vn -0.0000 1.0000 -0.0000
vn -1.0000 -0.0000 -0.0000
vn -0.0000 -0.9999 0.0129
vn 1.0000 -0.0000 -0.0000
vn -0.0000 -0.0000 -1.0000
vn -0.0000 -1.0000 -0.0000
vn -0.0000 -0.0000 1.0000
vn -0.0000 -0.9993 -0.0371
vn -0.0000 0.2729 0.9620
vn 0.9527 0.3039 -0.0000
vn -0.0000 0.9688 -0.2478
vn -0.0882 0.4564 -0.8854
vn -0.9527 0.3039 -0.0000
vn -0.0000 0.4038 -0.9148
vn -0.0000 -0.3391 0.9407
vn -0.0000 -0.1333 0.9911
vn -0.0000 -0.1790 -0.9838
vn -0.0000 -0.2889 -0.9573
vn -0.0000 -0.7015 -0.7127
vn -0.0000 -0.9860 -0.1669
vn -0.0000 -0.8953 0.4454
vn -0.0000 -0.0860 0.9963
vn -0.0000 -0.1779 0.9840
vn -0.0000 -0.5979 0.8016
vn -0.0000 -0.9756 0.2198
vn -0.0000 -0.8496 -0.5274
vn -0.0000 -0.0980 -0.9952
vn -0.0000 -0.2081 -0.9781
vn -0.0000 -0.3401 -0.9404
vn -0.0000 0.4395 -0.8982
vn 0.0889 0.4548 -0.8862
vn 0.0986 0.4221 -0.9012
vn -0.0986 0.4221 -0.9012
vt 0.625000 0.500000
vt 0.875000 0.500000
vt 0.438356 0.000000
vt 0.375000 0.000000
vt 0.563356 0.000000
vt 0.625000 0.000000
vt 0.625000 0.250000
vt 0.563356 0.250000
vt 0.250000 0.500000
vt 0.375000 0.500000
vt 0.375000 0.750000
vt 0.250000 0.750000
vt 0.563356 0.500000
vt 0.625000 0.750000
vt 0.563356 0.750000
vt 0.125000 0.500000
vt 0.438356 0.500000
vt 0.563356 0.375000
vt 0.625000 0.375000
vt 0.750000 0.500000
vt 0.563356 0.875000
vt 0.625000 0.875000
vt 0.625000 1.000000
vt 0.563356 1.000000
vt 0.875000 0.750000
vt 0.750000 0.750000
vt 0.563356 0.750000
vt 0.750000 0.750000
vt 0.750000 0.500000
vt 0.625000 0.500000
vt 0.375000 0.250000
vt 0.438356 0.250000
vt 0.500856 0.250000
vt 0.500856 0.250000
vt 0.563356 0.500000
vt 0.563356 0.500000
vt 0.500856 0.500000
vt 0.500856 0.500000
vt 0.438356 0.750000
vt 0.500856 0.750000
vt 0.375000 0.875000
vt 0.438356 0.875000
vt 0.438356 1.000000
vt 0.375000 1.000000
vt 0.500856 0.875000
vt 0.500856 1.000000
vt 0.375000 0.375000
vt 0.438356 0.375000
vt 0.500856 0.375000
vt 0.500856 0.500000
vt 0.500856 0.000000
vt 0.563356 0.375000
vt 0.125000 0.750000
s 0
usemtl Material
f 27/1/1 28/2/1 39/2/1 38/1/1
f 123/3/2 112/4/2 20/4/2 88/3/2
f 69/5/2 7/6/2 5/7/2 73/8/2
f 142/9/3 2/10/3 4/11/3 143/12/3
f 64/13/4 1/1/4 3/14/4 70/15/4
f 73/8/1 5/7/1 11/7/1 79/8/1
f 109/8/2 54/7/2 15/7/2 85/8/2
f 142/9/1 6/16/1 12/16/1 144/9/1
f 5/7/1 7/6/1 32/6/1 31/7/1
f 66/17/1 2/10/1 10/10/1 78/17/1
f 161/18/5 146/19/5 13/1/5 82/13/5
f 155/9/6 55/16/6 16/16/6 145/9/6
f 153/20/1 63/1/1 13/1/1 146/20/1
f 100/17/4 57/10/4 14/10/4 84/17/4
f 158/21/7 147/22/7 19/23/7 90/24/7
f 163/12/8 115/11/8 18/11/8 148/12/8
f 3/14/1 7/25/1 114/25/1 113/25/1 19/25/1 147/26/1 17/14/1
f 70/15/4 3/14/4 17/14/4 91/15/4 119/27/4 118/27/4
f 9/1/1 11/2/1 24/2/1 23/1/1
f 7/25/1 3/14/1 21/14/1 22/25/1
f 23/1/1 24/2/1 28/2/1 27/1/1
f 22/25/1 21/14/1 25/14/1 26/25/1
f 37/25/9 36/14/9 46/14/9 47/25/9
f 135/14/10 134/1/10 40/1/10 41/14/10
f 11/7/1 5/7/1 31/7/1 34/7/1
f 7/25/1 3/14/1 30/14/1 129/28/1 32/25/1
f 3/14/1 1/1/1 29/1/1 30/14/1
f 17/14/1 3/14/1 30/14/1 35/14/1
f 26/25/1 25/14/1 36/14/1 37/25/1
f 9/1/6 11/2/6 34/2/6 130/29/6 33/1/6
f 1/1/1 9/1/1 33/1/1 29/1/1
f 132/20/1 42/2/1 43/25/1 131/26/1
f 132/20/11 40/1/11 44/1/11 133/20/11
f 134/1/1 136/1/1 44/1/1 40/1/1
f 141/20/12 137/2/12 45/2/12 133/20/12
f 139/7/13 138/6/13 43/6/13 42/7/13
f 140/26/9 135/14/9 41/14/9 131/26/9
f 38/1/14 39/2/14 49/2/14 48/1/14
f 137/7/1 139/7/1 42/7/1 45/7/1
f 78/17/4 10/10/4 58/10/4 94/17/4
f 11/2/1 9/1/1 59/30/1 149/29/1 50/2/1
f 149/29/1 59/30/1 60/30/1 150/20/1
f 150/20/1 60/30/1 61/30/1 151/20/1
f 151/20/1 61/30/1 62/30/1 152/20/1
f 152/20/1 62/30/1 63/1/1 153/20/1
f 144/9/6 12/16/6 56/16/6 154/9/6
f 79/8/2 11/7/2 50/7/2 103/8/2
f 103/8/2 50/7/2 51/7/2 106/8/2
f 106/8/2 51/7/2 52/7/2 107/8/2
f 107/8/2 52/7/2 53/7/2 108/8/2
f 108/8/2 53/7/2 54/7/2 109/8/2
f 12/31/2 81/32/2 105/32/2 56/31/2
f 81/32/2 80/33/2 104/34/2 105/32/2
f 80/33/2 79/8/2 103/8/2 104/34/2
f 62/30/4 99/35/4 102/13/4 63/1/4
f 61/30/4 98/36/4 99/35/4 62/30/4
f 60/30/4 97/35/4 98/36/4 61/30/4
f 59/30/4 96/36/4 97/35/4 60/30/4
f 9/1/4 76/13/4 96/36/4 59/30/4
f 76/13/4 77/37/4 95/38/4 96/36/4
f 77/37/4 78/17/4 94/17/4 95/38/4
f 115/11/4 116/39/4 93/39/4 18/11/4
f 116/39/4 117/40/4 92/40/4 93/39/4
f 117/40/4 119/27/4 91/15/4 92/40/4
f 148/41/7 156/42/7 88/43/7 20/44/7
f 156/42/7 157/45/7 89/46/7 88/43/7
f 157/45/7 158/21/7 90/24/7 89/46/7
f 63/1/4 102/13/4 82/13/4 13/1/4
f 102/13/4 101/37/4 83/37/4 82/13/4
f 101/37/4 100/17/4 84/17/4 83/37/4
f 145/47/5 159/48/5 84/17/5 14/10/5
f 159/48/5 160/49/5 83/37/5 84/17/5
f 160/49/5 161/18/5 82/13/5 83/37/5
f 1/1/1 64/13/1 76/13/1 9/1/1
f 64/13/1 65/50/1 77/37/1 76/13/1
f 65/50/1 66/17/1 78/17/1 77/37/1
f 55/31/2 111/32/2 87/32/2 16/31/2
f 111/32/2 110/34/2 86/34/2 87/32/2
f 110/34/2 109/8/2 85/8/2 86/34/2
f 6/31/1 75/32/1 81/32/1 12/31/1
f 75/32/1 74/34/1 80/33/1 81/32/1
f 74/34/1 73/8/1 79/8/1 80/33/1
f 2/10/4 66/17/4 72/39/4 4/11/4
f 66/17/4 65/50/4 71/40/4 72/39/4
f 65/50/4 64/13/4 70/15/4 71/40/4
f 8/4/2 67/3/2 75/32/2 6/31/2
f 67/3/2 68/51/2 74/34/2 75/32/2
f 68/51/2 69/5/2 73/8/2 74/34/2
f 113/6/2 121/5/2 90/5/2 19/6/2
f 121/5/2 122/51/2 89/51/2 90/5/2
f 122/51/2 123/3/2 88/3/2 89/51/2
f 101/37/4 102/13/4 99/35/4
f 170/48/15 169/49/15 110/34/15 111/32/15
f 155/47/16 170/48/16 111/32/16 55/31/16
f 7/6/2 69/5/2 120/5/2 114/6/2
f 114/6/2 120/5/2 121/5/2 113/6/2
f 154/47/17 162/48/17 94/17/17 58/10/17
f 162/48/18 105/32/18 104/34/18 164/49/18
f 164/49/19 104/34/19 103/8/19 165/18/19
f 166/18/20 97/35/20 96/36/20 165/18/20
f 167/18/6 98/36/6 97/35/6 166/18/6
f 168/18/21 99/35/21 98/36/21 167/18/21
f 171/48/22 67/3/22 8/4/22 143/47/22
f 171/48/23 72/39/23 71/40/23 172/49/23
f 172/49/24 71/40/24 70/15/24 173/18/24
f 174/52/25 120/5/25 69/5/25 173/18/25
f 176/52/26 121/5/26 120/5/26 174/52/26
f 175/48/27 163/47/27 112/4/27 123/3/27
f 175/48/28 177/49/28 117/40/28 116/39/28
f 177/49/29 176/52/29 119/27/29 117/40/29
f 168/18/30 99/35/30 101/37/30 169/49/30
f 109/8/2 110/34/2 108/8/2
f 138/25/9 140/26/9 131/26/9 43/25/9
f 136/1/31 141/20/31 133/20/31 44/1/31
f 42/2/11 132/20/11 133/20/11 45/2/11
f 40/1/1 132/20/1 131/26/1 41/14/1
f 33/1/32 130/29/32 141/20/32 136/1/32
f 32/25/9 129/28/9 140/26/9 138/25/9
f 34/7/1 31/7/1 139/7/1 137/7/1
f 129/28/9 30/14/9 135/14/9 140/26/9
f 31/7/13 32/6/13 138/6/13 139/7/13
f 130/29/33 34/2/33 137/2/33 141/20/33
f 29/1/1 33/1/1 136/1/1 134/1/1
f 30/14/10 29/1/10 134/1/10 135/14/10
f 108/8/30 168/18/30 169/49/30 110/34/30
f 122/51/29 121/5/29 176/52/29 177/49/29
f 123/3/28 122/51/28 177/49/28 175/48/28
f 116/39/27 115/11/27 163/47/27 175/48/27
f 119/27/26 176/52/26 174/52/26 118/27/26
f 118/27/25 174/52/25 173/18/25 70/15/25
f 68/51/24 172/49/24 173/18/24 69/5/24
f 67/3/23 171/48/23 172/49/23 68/51/23
f 72/39/22 171/48/22 143/47/22 4/11/22
f 108/8/21 168/18/21 167/18/21 107/8/21
f 107/8/6 167/18/6 166/18/6 106/8/6
f 106/8/20 166/18/20 165/18/20 103/8/20
f 95/38/19 164/49/19 165/18/19 96/36/19
f 94/17/18 162/48/18 164/49/18 95/38/18
f 56/31/17 105/32/17 162/48/17 154/47/17
f 57/10/16 100/17/16 170/48/16 155/47/16
f 100/17/15 101/37/15 169/49/15 170/48/15
f 86/34/5 85/8/5 161/18/5 160/49/5
f 87/32/5 86/34/5 160/49/5 159/48/5
f 16/31/5 87/32/5 159/48/5 145/47/5
f 92/40/7 91/15/7 158/21/7 157/45/7
f 93/39/7 92/40/7 157/45/7 156/42/7
f 18/11/7 93/39/7 156/42/7 148/41/7
f 10/10/6 144/9/6 154/9/6 58/10/6
f 53/2/1 152/20/1 153/20/1 54/2/1
f 52/2/1 151/20/1 152/20/1 53/2/1
f 51/2/1 150/20/1 151/20/1 52/2/1
f 50/2/1 149/29/1 150/20/1 51/2/1
f 112/53/8 163/12/8 148/12/8 20/53/8
f 91/15/7 17/14/7 147/22/7 158/21/7
f 54/2/1 153/20/1 146/20/1 15/2/1
f 57/10/6 155/9/6 145/9/6 14/10/6
f 85/8/5 15/7/5 146/19/5 161/18/5
f 2/10/1 142/9/1 144/9/1 10/10/1
f 6/16/3 142/9/3 143/12/3 8/53/3
l 124 125
l 124 14
l 126 127
l 126 124
